<svg width="180" height="29" viewBox="0 0 180 29" fill="none" xmlns="http://www.w3.org/2000/svg">
<g id="Layer_1" clip-path="url(#clip0_47_4690)">
<path id="Vector" d="M179.921 0.389262C180.134 0.233557 179.835 0.0700671 179.827 0C179.559 0.34255 179.992 0.443758 179.921 0.389262Z" fill="#D020C9"/>
<path id="Vector_2" d="M177.065 3.7447L177.049 3.59678L176.711 4.23517L177.065 3.7447Z" fill="#D020C9"/>
<path id="Vector_3" d="M173.611 6.01799C174.24 6.29826 174.846 5.16161 175.57 4.91248L175.743 4.95141V4.39866C175.114 5.03581 174.396 5.58106 173.611 6.01799Z" fill="#D020C9"/>
<path id="Vector_4" d="M171.101 6.04913C171.321 6.1737 170.778 6.43839 171.581 5.87007H171.471C171.352 5.93971 171.229 5.9996 171.101 6.04913Z" fill="#D020C9"/>
<path id="Vector_5" d="M171.471 5.86228C171.14 5.86228 171.833 5.64429 171.471 5.86228V5.86228Z" fill="#D020C9"/>
<path id="Vector_6" d="M169.771 6.88993L170.188 6.46174C170.023 6.40725 169.566 6.60188 169.684 6.46174C169.212 6.78872 169.377 6.851 169.771 6.88993Z" fill="#D020C9"/>
<path id="Vector_7" d="M169.464 7.48939L169.692 7.28698C169.614 7.24027 169.543 7.27919 169.464 7.48939Z" fill="#D020C9"/>
<path id="Vector_8" d="M170.18 6.85879C170.023 7.00671 169.857 7.14684 169.692 7.28698C169.81 7.33369 169.897 7.48939 169.928 7.10792C169.952 7.24027 169.999 7.08456 170.18 6.85879Z" fill="#D020C9"/>
<path id="Vector_9" d="M170.534 6.76537C170.873 6.76537 171.274 6.60188 170.857 7.03785C171.793 6.46175 171.463 6.19705 170.534 6.76537Z" fill="#D020C9"/>
<path id="Vector_10" d="M173.721 6.61745L174.185 6.53181L174.413 6.18147C174.335 6.35275 173.611 6.46174 173.721 6.61745Z" fill="#D020C9"/>
<path id="Vector_11" d="M166.466 8.11221C166.466 8.23678 166.773 8.3302 166.867 8.44698L167.206 8.15893C166.93 8.1745 166.521 8.26792 166.466 8.11221Z" fill="#D020C9"/>
<path id="Vector_12" d="M166.828 8.44698L166.325 8.88295C166.86 8.68832 166.915 8.55597 166.828 8.44698Z" fill="#D020C9"/>
<path id="Vector_13" d="M169.614 8.08886C169.865 7.80859 170.117 7.53611 170.4 7.24805L169.48 8.18228L169.614 8.08886Z" fill="#D020C9"/>
<path id="Vector_14" d="M164.184 9.02309L164.412 8.63383L163.972 9.25665L164.184 9.02309Z" fill="#D020C9"/>
<path id="Vector_15" d="M162.705 9.64591C162.87 9.3345 162.225 9.41235 162.437 9.17879C162.077 9.37523 161.759 9.63973 161.501 9.95732C161.857 9.72524 162.28 9.61578 162.705 9.64591Z" fill="#D020C9"/>
<path id="Vector_16" d="M161.053 10.3933C161.216 10.2622 161.366 10.1163 161.501 9.95732C161.331 10.0801 161.18 10.227 161.053 10.3933Z" fill="#D020C9"/>
<path id="Vector_17" d="M165.302 9.24886C165.219 9.18539 165.123 9.1412 165.021 9.11963C164.919 9.09806 164.813 9.09965 164.712 9.1243L165.066 9.3345L165.302 9.24886Z" fill="#D020C9"/>
<path id="Vector_18" d="M165.365 9.2255H165.302C165.341 9.27221 165.357 9.27221 165.365 9.2255Z" fill="#D020C9"/>
<path id="Vector_19" d="M168.04 8.52483C167.78 8.85181 167.135 9.35785 167.953 9.30336C168.04 8.98416 167.599 9.0153 168.04 8.52483Z" fill="#D020C9"/>
<path id="Vector_20" d="M165.813 9.4902L166.466 9.30336C166.419 9.22551 166.262 9.15544 166.395 8.99973L165.813 9.4902Z" fill="#D020C9"/>
<path id="Vector_21" d="M165.538 9.71597L165.805 9.49799L165.561 9.56805L165.538 9.71597Z" fill="#D020C9"/>
<path id="Vector_22" d="M162.256 10.2843C162.01 10.5116 161.718 10.6841 161.399 10.7903C161.787 10.7223 162.169 10.6207 162.54 10.4867C162.532 10.3544 162.642 10.1364 162.256 10.2843Z" fill="#D020C9"/>
<path id="Vector_23" d="M163.642 9.86389L163.594 9.9106C163.642 9.91839 163.674 9.91839 163.642 9.86389Z" fill="#D020C9"/>
<path id="Vector_24" d="M157.984 11.9425L158.063 11.9815L158.055 11.927L157.984 11.9425Z" fill="#D020C9"/>
<path id="Vector_25" d="M162.626 10.5179C162.738 10.5069 162.845 10.4711 162.941 10.4132C163.036 10.3552 163.117 10.2765 163.177 10.1831C162.974 10.3027 162.761 10.4043 162.54 10.4867C162.532 10.5334 162.532 10.5646 162.626 10.5179Z" fill="#D020C9"/>
<path id="Vector_26" d="M160.171 10.8682C160.352 10.8837 160.534 10.8837 160.714 10.8682C160.525 10.8215 160.171 10.767 160.171 10.8682Z" fill="#D020C9"/>
<path id="Vector_27" d="M163.469 9.85611C163.381 9.79383 163.405 9.82497 163.469 9.85611V9.85611Z" fill="#D020C9"/>
<path id="Vector_28" d="M163.468 9.85611C163.358 9.95334 163.261 10.0631 163.177 10.1831C163.324 10.1041 163.463 10.0129 163.594 9.91061C163.549 9.90209 163.506 9.88346 163.468 9.85611Z" fill="#D020C9"/>
<path id="Vector_29" d="M157.606 14.2937C157.559 13.9901 158.22 13.5152 158.975 13.6008C159.534 13.1648 158.794 12.3552 158.063 11.9815C158.063 12.1138 158.126 12.2306 157.528 12.6043C157.811 12.6977 159.101 12.5342 158.637 12.9702C157.85 13.3828 157.897 13.087 157.425 13.0558C157.905 13.3128 156.497 13.9356 156.859 14.4105L157.559 13.9901C157.598 14.0679 157.37 14.2859 157.606 14.2937Z" fill="#D020C9"/>
<path id="Vector_30" d="M159.298 11.6078L159.55 11.4832C159.199 11.5229 158.843 11.4938 158.503 11.3976C158.11 11.6779 158.055 11.8102 158.055 11.9192C158.503 11.8024 158.936 11.6623 159.377 11.5377L159.298 11.6078Z" fill="#D020C9"/>
<path id="Vector_31" d="M160.738 11.0784C160.643 11.4677 160.053 11.8569 160.565 12.0282C161.352 11.7324 161.013 11.5766 161.43 11.2497C160.211 11.7635 161.721 10.9538 160.754 11.0862C160.96 10.9628 161.175 10.856 161.399 10.767C161.17 10.8074 160.939 10.8334 160.706 10.8448C160.777 10.8448 160.801 10.8448 160.706 10.8448C160.718 10.8908 160.718 10.939 160.706 10.985C160.329 11.0395 160.628 10.9227 160.706 10.8448C160.785 10.767 160.706 10.8448 160.706 10.7903L159.518 11.3898C159.936 11.3359 160.346 11.2313 160.738 11.0784Z" fill="#D020C9"/>
<path id="Vector_32" d="M167.56 10.2454C167.505 10.2454 167.497 10.2454 167.489 10.1909C167.481 10.1364 167.403 10.2999 167.56 10.2454Z" fill="#D020C9"/>
<path id="Vector_33" d="M166.97 10.2765C167.008 10.1971 167.062 10.1268 167.13 10.0703C167.198 10.0139 167.278 9.97266 167.363 9.94953C167.654 9.94953 167.426 10.0974 167.489 10.1909C167.623 10.0352 168.001 9.70818 167.387 9.79382L167.316 9.87168C166.781 9.98067 165.986 9.87167 166.057 9.77825C166.315 10.016 166.629 10.1871 166.97 10.2765Z" fill="#D020C9"/>
<path id="Vector_34" d="M163.846 10.8215L162.87 11.3664L163.508 11.4443L163.413 11.2886C164.027 11.1329 163.822 10.9772 163.846 10.8215Z" fill="#D020C9"/>
<path id="Vector_35" d="M157.811 11.818L157.834 11.4443L157.386 12.106L157.811 11.818Z" fill="#D020C9"/>
<path id="Vector_36" d="M156.457 12.2851L156.41 11.9737L156.103 12.2617L156.457 12.2851Z" fill="#D020C9"/>
<path id="Vector_37" d="M76.3717 27.6532L76.0491 27.7466C76.1595 27.7263 76.2676 27.695 76.3717 27.6532Z" fill="#D020C9"/>
<path id="Vector_38" d="M78.756 27.5909L78.8032 27.4352C78.701 27.5208 78.6537 27.5831 78.756 27.5909Z" fill="#D020C9"/>
<path id="Vector_39" d="M122.072 20.0703C121.561 19.8601 120.971 19.4942 121.081 19.829L121.269 20.1404C121.526 20.0485 121.803 20.0244 122.072 20.0703Z" fill="#D020C9"/>
<path id="Vector_40" d="M98.1204 24.7181L98.262 24.8115L98.561 24.469L98.1204 24.7181Z" fill="#D020C9"/>
<path id="Vector_41" d="M97.8842 26.135L97.239 25.9638C97.4464 26.046 97.663 26.1035 97.8842 26.135Z" fill="#D020C9"/>
<path id="Vector_42" d="M63.3886 28.385L63.0188 28.7431C63.6168 28.7275 63.3886 28.5562 63.3886 28.385Z" fill="#D020C9"/>
<path id="Vector_43" d="M142.318 16.3101C141.971 16.2732 141.622 16.2863 141.279 16.349C141.806 16.4191 142.263 16.5826 142.318 16.3101Z" fill="#D020C9"/>
<path id="Vector_44" d="M77.1744 24.033C76.9776 24.1031 76.8911 24.1732 76.8989 24.251C77.1035 24.1887 77.2216 24.1187 77.1744 24.033Z" fill="#D020C9"/>
<path id="Vector_45" d="M140.13 16.6215H140.358C140.655 16.491 140.967 16.3994 141.287 16.349C141.086 16.2959 140.876 16.293 140.674 16.3406C140.472 16.3882 140.285 16.4847 140.13 16.6215Z" fill="#D020C9"/>
<path id="Vector_46" d="M16.0517 26.789C16.0517 26.789 15.9809 26.789 15.9573 26.7345C15.9337 26.68 15.9809 26.7812 16.0517 26.789Z" fill="#D020C9"/>
<path id="Vector_47" d="M3.65894 20.0703C3.83767 20.1117 4.01373 20.1637 4.18614 20.226C4.02278 20.1396 3.84346 20.0866 3.65894 20.0703Z" fill="#D020C9"/>
<path id="Vector_48" d="M150.894 13.811C150.894 13.7643 151.178 13.7098 150.894 13.811V13.811Z" fill="#D020C9"/>
<path id="Vector_49" d="M152.697 14.6907C152.67 14.7152 152.65 14.7457 152.637 14.7796C152.625 14.8134 152.621 14.8497 152.625 14.8854C152.625 14.8142 152.65 14.7451 152.697 14.6907Z" fill="#D020C9"/>
<path id="Vector_50" d="M137.612 19.3152C137.676 19.3619 137.692 19.3697 137.612 19.3152V19.3152Z" fill="#D020C9"/>
<path id="Vector_51" d="M151.374 13.8421C151.241 13.8265 151.106 13.8265 150.973 13.8421C151.106 13.8547 151.241 13.8547 151.374 13.8421Z" fill="#D020C9"/>
<path id="Vector_52" d="M151.272 13.702H151.54C151.563 13.6008 151.516 13.5775 151.272 13.702Z" fill="#D020C9"/>
<path id="Vector_53" d="M150.485 13.9434C150.645 13.8963 150.808 13.8625 150.973 13.8421C150.91 13.8421 150.879 13.8421 150.894 13.8421L150.485 13.9434Z" fill="#D020C9"/>
<path id="Vector_54" d="M41.5063 27.5909C41.5063 27.5909 41.4591 27.5909 41.4433 27.5909C41.1286 27.6999 41.2624 27.6765 41.5063 27.5909Z" fill="#D020C9"/>
<path id="Vector_55" d="M113.543 24.9984C113.657 24.8314 113.819 24.7025 114.009 24.6289C114.199 24.5552 114.406 24.5402 114.605 24.5858L114.125 23.6671L113.543 24.9984Z" fill="#D020C9"/>
<path id="Vector_56" d="M70.6829 27.9334L71.4698 28.2215C70.5413 28.7431 69.896 28.5874 70.6042 29C70.675 27.949 73.6257 28.8054 73.6965 27.7388L74.2159 27.9412C74.0664 27.9412 74.0506 28.0035 73.9011 27.9957C74.9162 28.4706 74.6171 27.2172 75.9076 27.3106C76.3561 27.3807 76.6945 27.5208 76.3718 27.6609L77.3633 27.3651C77.6544 27.3651 77.5836 27.5597 77.3003 27.5519L78.8189 27.4118C79.1122 27.1953 79.4227 27.0026 79.7474 26.8357C80.1408 26.9758 79.5586 26.9603 79.6609 27.0848L80.4949 26.7968C80.849 27.0537 80.1645 27.3495 79.5822 27.334C80.4084 28.3538 80.2668 27.0381 81.99 27.5831L81.2031 27.7466C81.7382 28.3227 82.3519 28.0813 83.2725 28.4161C83.0444 28.2293 81.4234 27.5519 82.3283 27.2483C82.6949 27.3432 83.0844 27.2929 83.4142 27.1082C83.4142 27.4819 83.9099 27.3729 84.5157 27.3184V27.8244C85.1609 27.6454 85.098 27.3962 85.4678 27.1549C85.7005 27.1431 85.9309 27.2046 86.126 27.3305C86.3211 27.4564 86.4708 27.6402 86.5537 27.8556C87.7261 27.8556 85.7196 27.2872 87.0888 27.077C88.0419 27.1496 88.9984 26.9892 89.8742 26.6099C90.5587 26.7423 89.7719 26.9213 90.0237 27.0537L90.606 26.6177C90.7476 26.6177 90.7083 26.7423 90.6925 26.8123C91.1883 26.6255 90.6925 26.3063 91.4794 26.1272C91.6604 25.5745 93.1633 26.8279 94.0996 26.1272C94.3514 26.2518 94.0052 26.4387 94.0996 26.6255C94.876 26.3896 95.617 26.0518 96.3028 25.6212L97.2706 25.8859C96.5467 25.5589 97.4044 25.0529 98.1519 24.6403C97.8922 24.4768 97.664 24.3366 97.5224 24.2666L98.7341 23.9162C98.8915 23.9863 98.7813 24.1654 98.5925 24.3911L98.7971 24.3678C99.2456 24.5235 99.041 24.8271 98.7499 25.1463L98.2778 24.8738C97.9945 25.193 97.7349 25.5511 97.8214 25.8314C97.9411 25.7548 98.0747 25.7019 98.2148 25.6757C98.144 25.7613 98.0968 25.8392 98.144 25.8859C98.1912 25.9326 98.3092 25.8158 98.4981 25.6757L98.8207 26.2051L98.8758 25.9793L100.52 26.1973C101.63 25.5356 102.566 24.6403 104.376 24.251C103.959 24.6948 104.337 24.9205 104.376 25.4032C103.825 24.9361 102.975 25.738 102.015 25.7146C102.519 25.7146 102.432 25.9638 102.314 26.0572L103.967 25.4499C103.967 25.847 104.36 25.7146 104.817 25.8392C104.407 25.0607 106.036 25.2242 106.697 24.8972C106.768 25.1541 106.626 25.4421 105.776 25.4577C106.768 25.956 106.886 24.4301 107.846 24.8271C107.641 24.8271 107.531 24.8271 107.46 24.9672C107.917 24.687 109.105 24.7493 108.853 24.9672H108.656C110.025 24.9205 112.811 24.5468 112.929 23.8617C112.92 24.1859 112.87 24.5077 112.779 24.8193L114.935 22.2969C114.794 22.8886 115.777 24.1342 114.691 24.5936C115.171 24.6711 115.663 24.6004 116.1 24.3911C115.864 24.3366 115.439 23.6126 115.738 23.5581C116.272 23.8615 116.847 24.087 117.445 24.2276C117.099 24.1498 117.351 23.2156 117.878 23.1766C117.815 23.3246 118.036 24.0486 117.878 24.1654L119.059 23.1299C118.76 23.3246 119.106 23.9085 119.428 24.0797C119.271 23.9396 120.561 23.9318 120.892 23.7995L120.31 23.6749C121.805 23.5893 121.584 22.2424 123.04 22.0711C122.89 22.2736 122.772 23.2389 123.536 23.2389C123.803 22.7407 124.7 20.9034 125.896 20.3506L126.179 20.5608L127.108 20.1015C126.294 21.2507 125.34 22.2966 124.267 23.2156C124.85 23.3401 124.464 23.4958 125.29 23.3479C125.613 23.5425 124.897 23.7761 124.653 23.8228L126.604 23.6905C126.431 23.1844 127.981 22.9119 127.832 22.4993C127.171 22.7874 126.51 23.1066 125.841 23.3791C125.676 22.8886 126.801 21.7286 128.162 21.5729C128.54 21.7208 128.068 22.5383 128.162 22.7017C128.562 22.4166 129.039 22.2566 129.531 22.2424L129.012 22.6161C129.799 22.6784 130.114 21.7208 131.113 22.0556C131.428 22.0556 132.167 22.5538 132.167 22.2346C131.843 21.8506 131.606 21.4028 131.47 20.9209C131.334 20.4391 131.304 19.9342 131.381 19.4397C132.105 19.5458 132.821 19.7072 133.521 19.9224C134.127 20.2805 132.97 21.1758 133.521 21.4795C133.521 21.3393 133.765 21.1058 133.867 21.0279C134.221 21.0824 133.82 21.4872 134.52 21.2848C134.52 20.7399 135.968 21.0279 134.764 20.771C135.425 20.4829 135.551 20.771 136.338 20.5374C136.007 20.2572 136.826 19.2451 137.487 18.9804C137.487 19.1205 137.66 19.2607 137.754 19.3229C139.178 19.0894 139.989 19.1595 141.303 18.848C141.452 18.9415 142.09 18.9415 141.901 19.2295C142.088 19.0165 142.33 18.8577 142.601 18.7702C143.498 19.0271 141.72 19.0505 142.444 19.4475C142.444 19.1361 143.396 18.7858 143.923 18.4588C143.632 18.0384 142.57 18.6846 142.035 19.0115C141.885 18.3732 142.727 17.4545 144.017 16.8472C145.056 16.4346 144.584 17.1509 144.749 17.0185C146.819 16.6526 146.189 15.4615 147.983 15.4615C148.77 15.6872 148.227 16.24 148.455 16.5047C147.621 16.9017 147.039 16.6137 146.449 16.7927H147.236C146.909 17.0602 146.503 17.2159 146.079 17.2365C146.74 17.4467 149.518 16.3723 151.178 16.2867C151.422 16.0765 151.854 15.804 151.579 15.7028L151.107 15.8974C150.556 15.695 151.894 15.1968 151.233 15.2123C151.861 14.6712 152.62 14.301 153.436 14.138L153.743 14.5428C153.688 14.4183 153.066 14.4572 152.846 14.6752C153.168 14.356 154.42 14.862 154.679 14.1302L153.94 14.0134C154.53 13.5852 155.183 12.8456 156.04 12.7444C155.529 12.4019 155.867 12.8534 155.128 12.5031C155.828 13.0013 153.043 13.1181 154.058 13.5541C153.271 13.1259 152.956 13.6164 152.028 13.3283C152.098 13.4685 152.39 13.5463 151.681 13.6553C151.654 13.7178 151.617 13.7756 151.571 13.8266C151.72 13.8331 151.864 13.8788 151.988 13.9589C151.752 14.4027 150.651 14.6907 150.328 14.971C149.895 14.971 150.454 14.7452 150.178 14.644L149.706 15.0644C149.549 14.7452 148.463 14.7997 149.368 14.3404L148.495 14.5662C147.919 14.5047 147.338 14.6159 146.826 14.8854C146.394 14.8854 145.89 15.5393 146.181 15.1812C145.748 15.3758 145.308 15.5549 144.867 15.734V15.6483C143.506 15.9286 142.216 16.8706 140.524 16.6215C140.007 16.8875 139.443 17.0514 138.864 17.1042L138.643 16.8395C138.077 17.0652 136.818 16.9095 136.629 17.2676C135.842 16.5981 133.741 17.6803 132.695 17.7503V18.1396C131.925 18.2872 131.172 18.5062 130.444 18.7936L130.57 19.1283C129.846 19.5487 128.548 19.2295 127.336 19.4787C127.399 19.3307 127.714 19.3152 127.942 19.3541C126.368 18.848 124.976 20.444 123.559 20.0625C123.443 20.1334 123.313 20.1803 123.178 20.2004C123.043 20.2205 122.905 20.2133 122.772 20.1793H122.851H122.717C122.56 20.1404 122.403 20.0937 122.23 20.0625C122.36 20.1231 122.497 20.1676 122.639 20.1949C122.299 20.2547 121.966 20.3513 121.647 20.4829L121.427 20.1326H121.34C120.955 20.0548 121.073 20.3506 121.34 20.5997C121.173 20.6807 121.017 20.7827 120.876 20.9034C120.491 20.3506 119.908 21.2537 119.413 20.6698C119.2 21.0201 117.532 21.1525 117.422 21.8298C117.422 21.7519 117.28 21.7208 117.485 21.6897C117.066 21.6235 116.637 21.6889 116.257 21.8765L116.021 21.4327L115.171 22.2113C114.573 21.9933 114.322 21.8531 114.833 21.4327C113.558 22.1568 113.771 21.7753 112.685 22.476V22.1646C112.276 22.2191 111.662 22.7017 111.387 22.476C110.403 21.9777 106.831 22.8886 104.423 22.546C104.958 23.4102 103.282 22.2346 103.259 22.9431C103.101 22.7407 102.755 22.6472 103.125 22.4293C101.937 22.7407 101.284 22.2424 100.505 22.9042C100.347 22.7017 100.733 22.5694 100.599 22.4526C100.512 22.5071 100.237 22.6706 100.103 22.5538C99.9695 22.437 100.261 22.3592 100.442 22.2502C99.222 22.3903 99.1433 23.0287 99.104 23.6905C98.8844 23.5547 98.6214 23.5049 98.3667 23.551C98.112 23.5971 97.8838 23.7357 97.727 23.9396C97.4909 23.7527 97.1133 23.5659 97.8765 23.4413C97.4437 23.4413 95.2169 23.3246 95.2091 23.8228C95.0674 23.706 94.6032 23.8228 94.493 23.8929C93.8225 23.8925 93.1524 23.9315 92.4865 24.0097L92.7541 24.0719C92.4236 24.6948 91.9672 24.251 91.1804 24.3678V24.3055C89.3942 23.9707 90.4329 24.5546 88.6703 24.1576L88.7805 24.5235C88.6703 25.302 87.2068 24.1342 86.2311 24.5235L86.6009 24.7181C86.0658 25.0217 85.0272 23.706 84.4528 23.6282C84.3269 23.5659 84.6338 23.5114 84.799 23.4491C83.3355 23.0443 84.6417 23.9474 83.5637 24.1109C83.3512 23.854 83.7919 23.4258 83.0601 23.4102C82.6903 23.2156 80.9986 24.36 79.9835 23.8929C80.2117 24.0875 80.432 24.2821 79.9441 24.4534C79.1573 24.5624 77.8354 23.7761 77.1666 24.4534C77.0643 24.3989 77.0249 24.3444 77.0171 24.2977C76.4348 24.4846 75.1207 24.6403 74.7745 24.9984C74.1922 23.7294 71.1472 25.7769 71.1157 24.5546L69.3138 24.6714V24.5468C68.9669 24.4992 68.6138 24.523 68.2766 24.6168C67.9395 24.7106 67.6255 24.8723 67.3545 25.0918C67.087 25.0217 67.2837 24.905 67.2994 24.8427C66.1891 24.5729 65.0162 24.7463 64.034 25.3254L63.8767 24.9439C63.499 25.1774 61.4217 24.3911 59.7771 24.8816C59.7912 24.8412 59.814 24.8042 59.8438 24.7733C59.8737 24.7424 59.91 24.7182 59.9503 24.7025C58.1012 25.2008 55.4652 23.7294 54.8121 25.1463L53.5846 25.52C55.1583 25.5978 53.3643 26.135 54.0174 26.353C53.3958 26.4464 52.3886 25.9638 53.1597 25.8703L53.2856 25.9404C53.5532 25.2008 51.2949 25.7224 51.3342 25.2242C48.1868 25.3176 45.1418 24.9672 42.2147 24.9439L42.553 25.5122H41.538C41.2626 25.3799 41.176 25.0685 41.8999 25.084C41.5144 24.7726 40.6803 25.3643 40.6646 25.4811C39.2404 25.2475 41.2153 24.8193 40.7826 24.8038L40.1846 24.8427L40.3183 24.9127C39.8384 25.1463 39.799 25.3876 38.9256 25.3643C38.367 25.2475 38.6423 25.0062 38.422 24.9828C38.422 24.9439 38.3512 24.9283 38.0916 24.9828L36.809 24.9127L37.3126 25.3721C36.746 25.5823 36.1087 25.3254 36.691 25.847C35.8333 25.0685 31.9148 25.4421 31.3876 25.1774C30.5554 25.421 29.6776 25.4716 28.8225 25.3254C29.0585 25.4344 29.1765 25.9404 28.3346 25.8392C28.7123 24.8271 26.8317 25.2709 26.218 24.469C26.7766 25.0217 23.8574 24.4067 24.7229 25.1852C24.0305 25.0295 24.7229 24.796 24.2115 24.4923C23.3071 24.5704 22.3959 24.4887 21.5205 24.251C20.5476 23.9458 19.5498 23.7244 18.5383 23.5893C18.4832 23.7216 18.7901 23.9785 18.3259 24.1109L17.3738 23.2623C16.9646 23.2623 16.8702 23.9785 16.225 23.3868C16.3115 23.5192 16.4374 23.7138 16.162 23.7138C14.2105 23.1326 12.227 22.6621 10.2213 22.3047C9.21568 22.1066 8.22864 21.8254 7.2706 21.4639C6.29327 21.119 5.37513 20.6281 4.5481 20.008C4.973 20.4362 4.62678 20.3428 4.22549 20.2105C4.46154 20.3584 4.10748 20.5297 4.09174 20.7243C3.61963 20.3662 3.13964 20.047 2.68327 19.6655C2.21116 20.0236 0.999403 19.0115 0.637451 19.4008L1.1725 19.5254C0.275494 19.7901 1.61314 21.0824 1.24332 21.7519C2.22688 21.4717 2.94293 23.4336 4.5481 22.9898C4.78416 23.2389 4.23336 23.1377 4.32778 23.3557C4.76055 23.1611 5.16186 23.2467 5.86215 23.597L5.75198 23.6438C6.61771 23.8619 7.46278 24.1537 8.27777 24.5157C9.06462 24.8038 9.85147 25.1307 10.9845 25.5278L10.898 25.1307C11.1863 25.2316 11.4532 25.3847 11.6848 25.5823C12.393 25.1774 10.2606 25.2164 10.9373 24.7337C11.433 25.6601 14.5254 25.5122 14.8244 26.4464C15.6112 26.5788 14.667 25.9871 15.4617 26.1195L15.627 26.3842L15.8787 26.1272C16.3902 26.2596 16.6105 26.5866 16.5948 26.789C16.4249 26.7693 16.2532 26.7693 16.0833 26.789C16.7207 27.1705 18.0111 27.0303 18.2314 27.1315C17.9796 27.0537 17.7357 26.9603 17.4839 26.8746C18.5855 26.9447 19.7973 27.1082 20.9933 27.2639C22.1461 27.4169 23.3125 27.443 24.4712 27.3417L24.3217 27.1549C25.9583 26.9758 25.5964 27.4429 27.3668 27.4352H27.3038C27.7231 27.2808 28.1736 27.2274 28.6179 27.2795C28.1615 27.4585 29.4047 27.7154 28.8382 27.9101C30.6007 27.6609 29.7195 27.6843 30.8919 27.1315L31.1279 27.4819C31.4978 27.1786 31.9703 27.0256 32.4498 27.0537C31.7181 27.2795 32.9927 27.513 32.1744 27.8322C34.0078 28.5251 34.9363 27.2795 35.7546 28.2137C36.6201 27.4352 34.1809 27.7466 34.653 27.5831C34.2596 27.3106 35.3612 26.9992 35.9356 27.0848C36.51 27.1705 36.9191 28.128 38.3984 28.128C38.2568 28.128 38.241 28.1825 38.0994 28.1825C38.6502 28.385 39.1853 27.9101 39.862 28.237C40.2475 27.7544 40.7511 28.237 40.8534 27.6531L39.5 27.7933C40.2869 27.6298 40.9872 26.9213 42.254 27.2561C42.0378 27.4314 41.7893 27.5636 41.5222 27.6454C41.892 27.8244 42.2382 27.5208 42.6159 27.6999C42.5136 28.3227 40.9714 27.8478 40.1452 28.3149C40.5465 28.5718 41.7189 27.8711 41.294 28.5407C41.8842 27.6843 42.7576 28.6341 43.749 27.9801L43.6861 28.346C43.9321 28.2234 44.1988 28.1469 44.4729 28.1203L43.9536 28.6029C44.7404 28.1903 45.5273 28.9377 46.3141 28.7119C44.6854 28.7119 45.9443 28.2682 45.2519 28.0113C47.2505 27.4819 46.4243 28.9611 48.6668 28.7431C48.3599 28.8054 47.518 28.5485 47.9901 28.3616C48.4343 28.4122 48.8644 28.547 49.257 28.7587C50.7362 28.6497 49.0209 28.3772 49.6504 28.1436C50.1618 28.5796 50.3743 27.9412 51.0195 27.7855V28.1592C52.7191 28.3694 51.4523 27.3807 52.9788 27.6298L52.3493 28.167L53.1361 28.0191L52.9867 28.4472C53.6093 28.1801 54.304 28.1254 54.9616 28.2915C54.757 28.0346 55.056 27.6064 55.8036 27.5831C56.3229 27.7933 55.5282 27.9412 56.5904 27.8711C56.3544 28.1125 56.0947 28.4083 55.6305 28.0736C55.5833 28.1981 55.3944 28.3149 55.3472 28.4317C55.9303 28.5598 56.5346 28.5598 57.1176 28.4317C56.9751 28.4299 56.834 28.4035 56.7006 28.3538L58.2271 27.8011C58.4789 27.9334 58.2822 28.0502 58.0933 28.167C58.4149 28.0573 58.7435 27.9688 59.0769 27.9023C58.9667 28.2059 58.9982 28.5251 58.3529 28.6808L59.8165 28.3071C59.9188 28.4395 60.6034 28.6574 60.3909 28.7742C61.1778 28.9377 62.3738 28.1358 63.4596 28.3538C63.5694 28.2573 63.707 28.1974 63.8531 28.1825C64.8681 28.2293 65.773 28.5796 67.0005 28.128L67.6929 28.6574C68.6371 28.5095 66.7565 27.9879 68.3145 27.7466C69.424 27.5364 68.7473 28.1981 69.1407 28.3383C69.4962 28.0748 69.9084 27.8962 70.3452 27.8165C70.782 27.7368 71.2315 27.7582 71.6586 27.8789C71.3362 27.931 71.0092 27.9493 70.6829 27.9334ZM82.2732 27.2639C82.0529 27.3573 81.6123 27.622 81.4392 27.404C81.691 26.9603 81.9034 27.1627 82.2732 27.2639ZM99.8593 25.302C99.702 25.4421 99.4423 25.4032 99.1354 25.302C99.3782 25.2414 99.6323 25.2414 99.8751 25.302H99.8593ZM147.739 14.9788C147.22 15.0255 147.401 15.0255 147.755 14.9788H147.739ZM148.778 14.8698C148.864 14.7919 148.841 14.7374 148.778 14.6985C148.731 14.8153 148.51 14.8776 148.251 14.9243C148.369 15.0255 148.518 15.0255 148.794 14.8698H148.778ZM38.2096 25.0529L38.4142 25.1541C37.9735 25.2553 38.0994 25.1463 38.2096 25.0529Z" fill="#D020C9"/>
<path id="Vector_57" d="M97.9157 25.9715C97.8625 25.9142 97.8246 25.8446 97.8055 25.7691C97.7268 25.8392 97.7268 25.9248 97.9157 25.9715Z" fill="#D020C9"/>
<path id="Vector_58" d="M63.4595 28.3227C63.4533 28.343 63.4533 28.3646 63.4595 28.385V28.3227Z" fill="#D020C9"/>
<path id="Vector_59" d="M133.835 21.604C133.679 21.606 133.525 21.5685 133.387 21.495C133.418 21.5885 133.505 21.6507 133.835 21.604Z" fill="#D020C9"/>
<path id="Vector_60" d="M153.877 12.7522L153.271 13.0403C153.464 12.9686 153.673 12.9497 153.877 12.9858C153.821 12.9079 153.664 12.8223 153.877 12.7522Z" fill="#D020C9"/>
<path id="Vector_61" d="M160.061 13.2427C160.14 13.1726 160.258 13.1726 160.329 13.1025L160.25 12.9391C159.865 13.087 159.628 13.3127 160.061 13.2427Z" fill="#D020C9"/>
<path id="Vector_62" d="M154.813 13.7643C154.954 14.0524 155.324 13.8266 155.749 13.6319H155.671C155.671 13.196 155.238 13.4685 154.813 13.7643Z" fill="#D020C9"/>
<path id="Vector_63" d="M155.852 13.593C155.975 13.5376 156.104 13.4959 156.237 13.4685C156.237 13.2738 156.08 13.4685 155.852 13.593Z" fill="#D020C9"/>
<path id="Vector_64" d="M149.997 14.3248C150.233 14.3248 149.997 13.8966 150.178 13.9901C150.304 13.5385 148.896 14.8387 149.997 14.3248Z" fill="#D020C9"/>
<path id="Vector_65" d="M155.482 14.6518L155.206 14.3326L155.049 14.7063L155.482 14.6518Z" fill="#D020C9"/>
<path id="Vector_66" d="M151.878 15.4459L152.625 15.3525C152.625 15.2902 152.673 15.2279 152.775 15.1656C152.303 15.2902 151.823 15.3369 151.878 15.4459Z" fill="#D020C9"/>
<path id="Vector_67" d="M152.775 15.1656C152.975 15.122 153.165 15.04 153.334 14.9243C153.139 14.9835 152.951 15.0645 152.775 15.1656Z" fill="#D020C9"/>
<path id="Vector_68" d="M154.545 15.0644L154.309 15.0566L153.798 15.1812L154.545 15.0644Z" fill="#D020C9"/>
<path id="Vector_69" d="M144.12 17.4156L143.333 17.7036C143.278 17.8593 143.514 17.8827 143.797 17.7659C143.986 17.6258 144.269 17.509 144.12 17.4156Z" fill="#D020C9"/>
<path id="Vector_70" d="M146.795 17.8593C146.567 17.8593 146.527 17.7581 146.378 17.6647L146.472 18.1396L146.795 17.8593Z" fill="#D020C9"/>
<path id="Vector_71" d="M144.489 18.5366C144.442 18.6846 143.427 19.1828 144.426 18.9181C144.482 18.7702 145.221 18.4744 144.489 18.5366Z" fill="#D020C9"/>
<path id="Vector_72" d="M132.34 20.5452L132.537 20.5063L132.364 19.7278L132.34 20.5452Z" fill="#D020C9"/>
<path id="Vector_73" d="M121.938 24.1809C122.93 24.2276 122.096 23.6593 123 23.7683C123.197 23.5503 122.261 23.6827 122.465 23.4881C121.915 23.7683 121.616 23.706 121.938 24.1809Z" fill="#D020C9"/>
<path id="Vector_74" d="M122.465 23.4881L122.741 23.3246C122.641 23.3653 122.549 23.4204 122.465 23.4881Z" fill="#D020C9"/>
<path id="Vector_75" d="M1.75475 18.8792L1.25903 18.4977L1.51869 18.8948L1.75475 18.8792Z" fill="#D020C9"/>
<path id="Vector_76" d="M0.440494 18.9804L0.511307 18.4666L-0.0158691 18.7468C0.141501 18.778 0.440494 18.8403 0.440494 18.9804Z" fill="#D020C9"/>
<path id="Vector_77" d="M84.0671 28.2059L84.1064 28.0813C84.0041 27.9568 83.8625 27.9568 83.5635 27.949L84.0671 28.2059Z" fill="#D020C9"/>
<path id="Vector_78" d="M75.6006 28.1748L75.7501 28.1825L75.4668 27.731L75.6006 28.1748Z" fill="#D020C9"/>
<path id="Vector_79" d="M68.5425 28.9766C68.8336 28.9766 69.172 28.8754 69.4631 28.8832C68.8336 28.9844 68.4481 28.4083 68.5425 28.9766Z" fill="#D020C9"/>
</g>
<defs>
<clipPath id="clip0_47_4690">
<rect width="180" height="29" fill="white"/>
</clipPath>
</defs>
</svg>
