<svg width="110" height="86" viewBox="0 0 110 86" fill="none" xmlns="http://www.w3.org/2000/svg">
<g id="Layer_1" clip-path="url(#clip0_69_447)">
<path id="Vector" d="M109.958 0.526089C110.026 0.368232 109.9 0.0788292 109.642 0.215639L109.568 0.773399L109.958 0.526089Z" fill="#D020C9"/>
<path id="Vector_2" d="M107.895 0.0946011C107.725 0.253336 107.616 0.46623 107.587 0.696697C107.557 0.927164 107.608 1.1608 107.732 1.35745C107.906 0.789169 108.037 0.973335 108.227 0.305074C108.274 0.273566 108.329 0.254533 108.386 0.249706C108.443 0.244879 108.501 0.254414 108.553 0.277446C108.605 0.300478 108.651 0.336269 108.686 0.381542C108.721 0.426816 108.744 0.480125 108.753 0.536599C108.816 0.378742 109.205 0.5366 109.279 0.168267C109.175 0.0996047 109.059 0.0521933 108.937 0.0287792C108.814 0.00536516 108.689 0.00641161 108.567 0.0318544C108.445 0.0572971 108.33 0.106632 108.227 0.177011C108.124 0.24739 108.037 0.33742 107.969 0.441888C107.853 0.352436 107.895 0.194577 107.895 0.0946011Z" fill="#D020C9"/>
<path id="Vector_3" d="M83.5221 13.9387L83.6957 13.8545C83.6315 13.8671 83.5717 13.8961 83.5221 13.9387Z" fill="#D020C9"/>
<path id="Vector_4" d="M71.8459 27.0934C71.9143 26.9777 71.9091 26.904 71.8459 26.8672C71.8249 26.9829 71.7933 27.0934 71.8459 27.0934Z" fill="#D020C9"/>
<path id="Vector_5" d="M69.6254 29.1983C69.6728 29.1562 69.7096 29.1141 69.7517 29.072C69.678 29.1036 69.6149 29.1404 69.6254 29.1983Z" fill="#D020C9"/>
<path id="Vector_6" d="M83.5221 13.9387L83.0696 14.1492C83.1643 14.2913 83.3327 14.0703 83.5221 13.9387Z" fill="#D020C9"/>
<path id="Vector_7" d="M104.643 2.4678C104.721 2.41328 104.784 2.34113 104.828 2.25732C104.764 2.30468 104.696 2.34678 104.628 2.38887L104.643 2.4678Z" fill="#D020C9"/>
<path id="Vector_8" d="M89.1102 8.48751L89.2207 8.39806C89.2154 8.31647 89.2031 8.23548 89.1839 8.15601L89.1102 8.48751Z" fill="#D020C9"/>
<path id="Vector_9" d="M93.9775 4.94629C93.8512 4.99891 94.0459 5.39881 94.1091 5.58824C94.0883 5.51783 94.0856 5.4433 94.1012 5.37156C94.1169 5.29982 94.1503 5.23319 94.1985 5.17781C94.1381 5.08904 94.0634 5.01081 93.9775 4.94629Z" fill="#D020C9"/>
<path id="Vector_10" d="M85.7532 11.1658C85.7119 11.1298 85.6635 11.1029 85.6111 11.0869C85.6494 11.127 85.6989 11.1545 85.7532 11.1658Z" fill="#D020C9"/>
<path id="Vector_11" d="M7.26143 60.4959C7.2639 60.4697 7.2639 60.4432 7.26143 60.417C7.21933 60.4696 7.21933 60.5012 7.26143 60.4959Z" fill="#D020C9"/>
<path id="Vector_12" d="M0.163086 59.8226L0.252529 59.7805C0.244055 59.6972 0.229983 59.6146 0.210425 59.5332L0.163086 59.8226Z" fill="#D020C9"/>
<path id="Vector_13" d="M66.0736 33.4604C66.0947 33.371 66.1315 33.2973 66.0736 33.4604V33.4604Z" fill="#D020C9"/>
<path id="Vector_14" d="M55.813 82.4803C55.7761 82.0488 56.0445 82.2488 56.2971 82.3698C56.5497 82.4908 56.7706 82.5592 56.6496 82.0172C56.6022 82.1067 56.3286 82.0172 56.1234 81.9857C55.9182 81.9541 55.6604 82.0067 55.813 82.4803Z" fill="#D020C9"/>
<path id="Vector_15" d="M104.485 2.46265C104.414 2.49527 104.34 2.52339 104.265 2.54684C104.344 2.53591 104.419 2.50712 104.485 2.46265Z" fill="#D020C9"/>
<path id="Vector_16" d="M59.8436 44.6208C59.9239 44.6266 60.0044 44.6159 60.0804 44.5893C60.0002 44.5719 59.9165 44.5831 59.8436 44.6208Z" fill="#D020C9"/>
<path id="Vector_17" d="M65.0896 36.6755L64.916 36.8439C64.9825 36.7974 65.0411 36.7405 65.0896 36.6755Z" fill="#D020C9"/>
<path id="Vector_18" d="M58.2861 49.3618C58.2072 49.4671 58.1335 49.4828 58.1177 49.667H58.1861C58.1626 49.6127 58.1598 49.5517 58.1782 49.4954C58.1966 49.4392 58.235 49.3917 58.2861 49.3618Z" fill="#D020C9"/>
<path id="Vector_19" d="M56.3865 54.1555L56.497 54.0923L56.5286 53.9292L56.3865 54.1555Z" fill="#D020C9"/>
<path id="Vector_20" d="M22.2157 58.6017C22.1132 58.4887 22.0313 58.3587 21.9736 58.2175C22.0841 58.528 21.3369 58.6648 22.2157 58.6017Z" fill="#D020C9"/>
<path id="Vector_21" d="M104.554 2.23633C104.554 2.35209 104.554 2.41524 104.485 2.46259L104.628 2.38893C104.629 2.35939 104.623 2.32998 104.61 2.30335C104.597 2.27673 104.578 2.25369 104.554 2.23633Z" fill="#D020C9"/>
<path id="Vector_22" d="M61.4169 50.9509L61.0433 51.6402C61.1892 51.4227 61.3143 51.1919 61.4169 50.9509Z" fill="#D020C9"/>
<path id="Vector_23" d="M57.16 63.5269H56.9811C57.0081 63.5431 57.039 63.5517 57.0706 63.5517C57.1021 63.5517 57.133 63.5431 57.16 63.5269Z" fill="#D020C9"/>
<path id="Vector_24" d="M60.2488 53.8081C60.077 53.8693 59.9233 53.9724 59.8015 54.108C59.8189 54.1539 59.8437 54.1966 59.8751 54.2343L60.2488 53.8081Z" fill="#D020C9"/>
<path id="Vector_25" d="M16.8539 59.6016C17.6011 59.5543 17.1591 59.007 17.2853 58.6597C18.1693 58.423 17.7379 59.0544 18.0641 59.328C18.5903 59.1281 19.0007 58.5598 19.4216 58.5493C19.4585 58.644 19.5427 58.6755 19.4532 58.7966C20.0163 58.3072 21.2054 58.6913 21.8737 58.0704C21.9171 58.1087 21.9498 58.1577 21.9684 58.2125C21.8626 57.9616 21.8158 57.6898 21.8316 57.4179C22.1737 57.3916 22.4525 57.018 22.5946 57.4179C22.3841 57.4179 22.3736 57.5705 22.2789 57.6916L22.6315 57.5127C22.9682 58.0388 22.1474 57.7179 22.1631 58.1283C22.8472 57.9126 23.647 57.46 24.1837 57.6021C24.3047 58.1283 22.9471 57.8021 23.6575 58.2651L22.8314 58.0757C23.4839 58.9123 22.3052 58.0283 22.9314 58.9228C23.9837 59.0544 24.1258 58.6282 25.1993 58.7597C25.4413 58.4598 25.115 58.323 25.3571 58.0178C26.8936 57.4916 26.5568 59.3754 27.6776 58.6703C27.9723 58.3177 28.1038 57.6179 28.8983 58.0073L28.609 58.6124C29.6613 58.6966 29.2299 57.76 30.3138 58.2072C30.1086 58.4388 29.4824 58.3756 29.6403 58.4545C30.3296 58.9807 30.1665 58.1336 30.6927 58.1546L30.7821 58.6808C31.8924 58.6282 33.1342 58.3388 34.376 58.3335C34.2918 58.4914 34.0708 58.6387 34.3444 58.8281C35.1547 58.7601 35.9707 58.8259 36.7596 59.0228C37.5444 59.1955 38.3162 59.4223 39.0696 59.7016L39.6958 59.3228C39.8273 59.3228 39.9115 59.5595 39.7589 59.6332C40.3114 59.8858 39.8273 59.3438 40.1273 59.2017C40.464 59.2017 40.5271 59.5227 40.2956 59.6332C41.348 59.3596 43.3317 59.2491 44.3157 59.9174L44.079 60.0173C44.8788 60.3383 45.1944 59.2543 45.8838 59.8332L45.7207 59.8858C46.5994 60.1699 47.5623 60.2804 48.4516 60.5014C49.2818 60.6508 50.0678 60.9853 50.751 61.4801C51.1825 60.8908 52.4138 62.2221 52.7716 61.3591C53.6398 62.0905 53.2978 62.1589 54.5817 62.8956C54.929 63.0482 55.3026 62.5272 55.7867 62.5957L55.6288 63.0534L56.4076 62.8009L56.5128 63.4691L56.9653 63.5112C56.818 63.4218 56.7022 63.1745 56.7811 63.0534C57.5125 63.1061 58.1861 64.0269 58.0809 64.2637C58.6071 64.3637 59.1332 64.4847 59.6594 64.6215C59.5331 64.7741 59.27 64.7057 59.028 64.7215C60.0014 64.6899 58.9228 65.2477 59.7962 65.2161C59.7647 65.0687 59.9909 64.9951 60.0593 64.9162C60.4191 65.4489 60.9305 65.8614 61.5274 66.1001L61.2327 66.3C62.0799 67.0157 63.148 67.6523 63.911 68.6153C63.8729 68.5306 63.8646 68.4356 63.8875 68.3456C63.9103 68.2557 63.963 68.1762 64.0369 68.12C64.1107 68.0638 64.2014 68.0343 64.2942 68.0364C64.387 68.0384 64.4763 68.0718 64.5477 68.1312L64.232 68.5679C64.6266 68.5679 64.1531 68.1312 64.7582 68.2943C65.0002 68.7258 64.4793 68.8994 64.1899 68.7942L64.6688 69.1362C64.5635 69.252 64.4162 69.1941 64.2373 69.2783C64.3372 69.2783 64.3951 69.3467 64.4372 69.4414C64.464 69.5556 64.4816 69.6717 64.4898 69.7887C64.4898 70.0412 64.5845 70.2517 64.8897 70.2622L64.7635 70.3622C64.8611 70.586 64.9717 70.8039 65.095 71.0147C65.1791 71.2146 65.2633 71.3988 65.3475 71.5724L65.4738 71.8355L65.5685 72.1144C65.6317 72.3039 65.7001 72.5038 65.758 72.7353C66.1947 72.6774 66.1473 73.0721 66.542 73.3299C66.4952 73.7295 66.4196 74.1252 66.3158 74.5138C66.2579 74.7138 66.2 74.9137 66.1579 75.119L66.0631 75.7451C66.1894 76.3818 66.4052 75.9767 66.6262 76.3029C66.2473 76.3029 66.0474 77.1185 65.8842 76.6239C65.8316 76.8712 65.8053 77.0817 65.7632 77.2658C65.7211 77.45 65.6685 77.6079 65.6317 77.792L65.5843 78.0709C65.5843 78.1656 65.5317 78.2656 65.5001 78.3708C65.4471 78.6387 65.375 78.9025 65.2844 79.1601C65.5054 79.1338 65.658 79.0338 65.7316 79.1601C65.6474 79.3969 65.2791 79.5232 65.1423 79.3811V79.3074C65.0599 79.6864 64.8335 80.0184 64.5109 80.2335C64.3466 80.3433 64.17 80.4334 63.9847 80.5019L63.7163 80.6124C63.621 80.6384 63.5244 80.6595 63.4269 80.6755C63.2427 80.7124 63.0638 80.7439 62.9007 80.7913C62.7354 80.798 62.5714 80.8227 62.4114 80.865C62.129 80.9381 61.8768 81.0983 61.6905 81.3227L61.7326 81.2701C61.4278 81.4888 61.0951 81.6658 60.7434 81.7963C60.2856 81.6963 61.0328 81.5069 60.7118 81.2386C60.5389 81.3599 60.3308 81.421 60.1197 81.4125C59.9086 81.4039 59.7062 81.3261 59.5436 81.1912C59.3147 80.9499 59.0481 80.7473 58.7543 80.5914C58.8944 80.3377 58.9302 80.0396 58.8543 79.76C58.7502 79.4224 58.62 79.0934 58.465 78.776C58.1545 77.9867 57.7914 77.1343 57.9861 76.4502L57.7336 76.587C57.3863 76.3345 57.7651 76.1713 57.7967 75.924C57.581 76.0082 57.6283 76.324 57.4284 76.1661C57.2257 75.4927 57.0744 74.805 56.9759 74.1087L56.9075 73.5825C56.9075 73.4036 56.9075 73.2247 56.9075 73.0563C56.9075 72.6985 56.9075 72.3354 56.9075 71.9776L56.9495 70.8989L57.0969 69.8465C57.2074 69.1362 57.2442 68.4311 57.3863 67.7418C57.5389 66.7315 55.9813 67.0525 56.7443 65.7896L57.2337 66.2106C57.1227 65.6813 57.0978 65.1376 57.16 64.6004C57.2021 64.0742 57.2811 63.5481 57.3653 62.9956C57.6476 61.9565 57.8082 60.8882 57.844 59.8121C57.9282 59.9647 58.0809 60.0068 58.023 60.2015C58.5071 59.87 58.4702 58.6229 58.1755 58.5387C58.2966 58.2335 58.465 58.5387 58.6702 58.3914C58.8754 58.2441 58.7912 57.9073 58.7596 57.6389C58.728 57.3706 58.7596 57.1128 58.9543 57.0707C59.028 57.0707 59.0332 57.2285 59.0332 57.3127C58.949 56.9812 59.5068 56.0446 59.0017 56.1709C59.4437 55.4868 59.2911 54.666 59.7752 54.1661C59.47 53.6083 60.4803 52.9874 59.8857 52.5875C60.2119 52.7454 60.4592 52.4718 60.6381 52.0929C60.8129 51.7279 60.8857 51.3225 60.8486 50.9195C60.9802 51.1615 61.2275 50.609 61.4222 50.9195C61.6432 50.3933 61.7326 49.8671 61.3537 49.7935C62.5692 49.1936 61.659 47.5624 62.8955 47.4993C63.2911 45.9006 63.8191 44.3377 64.4741 42.8267C65.0739 43.2213 63.6953 44.3579 64.3899 44.6578C64.8477 43.2424 64.7161 42.1848 65.6106 41.0114C65.8895 40.7325 65.7685 41.3481 65.8053 41.5375C66.3315 40.1221 67.3102 39.1223 67.6891 37.8068C67.7417 37.8437 67.7312 38.0068 67.6891 38.1489C67.8049 37.9174 68.0942 37.6911 67.8048 37.5437L67.747 37.8068C67.1313 37.9068 67.4628 36.4072 67.2787 36.2283C67.8048 37.0965 68.189 35.2548 68.7888 36.4809C68.8309 36.3019 68.8204 36.0388 68.6204 35.9547C68.8098 35.7758 68.9624 35.7758 69.0256 36.1283C69.3886 35.2548 68.9204 35.339 69.3887 34.6392C69.515 34.7286 69.4729 34.9023 69.5781 35.0759C69.5305 34.7949 69.5474 34.5067 69.6276 34.2333C69.7078 33.9598 69.8493 33.7081 70.0412 33.4974C70.0938 33.5868 70.2411 33.5868 70.1201 33.7657C70.7673 32.7133 70.6463 31.582 71.6303 30.6349C71.967 31.3558 72.0722 30.3876 72.6037 30.6717L72.8773 29.9877L72.4774 30.0561C72.8563 29.5299 72.8352 28.8458 73.3088 28.5143L73.2298 29.0405L73.835 27.9881L73.2614 28.3986C73.393 27.6987 72.6195 28.0145 73.2614 27.4251C73.2088 27.5988 73.6403 26.8989 74.1244 26.8621C74.1195 26.6652 74.1606 26.4698 74.2447 26.2916C74.3288 26.1135 74.4533 25.9574 74.6084 25.836C74.8347 25.836 75.0662 26.3096 75.2136 26.3254C75.0136 25.7992 76.0081 25.0678 75.8292 24.4311C75.8518 24.5162 75.8941 24.5948 75.9526 24.6606C76.011 24.7264 76.0842 24.7775 76.166 24.81L76.0081 24.3574C76.2923 24.2101 76.3712 24.2154 76.5343 24.4048C77.15 23.7681 75.7714 24.1575 76.6869 23.5471C76.6869 23.6313 76.729 23.6366 76.6869 23.8102C77.4815 23.1051 77.7393 22.0685 78.5444 21.4529C79.1758 21.6212 78.1076 22.1895 78.7022 22.2685C79.5231 21.1529 80.0492 19.6375 81.0595 18.7219L80.8386 18.8588C80.3492 18.1589 81.8331 18.4115 82.0067 17.6485C81.9383 17.8116 82.1962 18.1273 82.1593 18.0274C82.8907 17.4591 83.2801 16.5067 84.1167 15.3596L84.143 15.6332C84.6986 15.2542 85.2261 14.8357 85.7216 14.3809C85.7216 14.1073 85.9636 13.8968 85.6058 13.8126C86.695 13.6495 87.2265 12.9759 87.7106 12.2761C87.9395 11.9239 88.2059 11.5975 88.5051 11.3027C88.8247 11.0141 89.2251 10.8304 89.6523 10.7765C89.5049 10.8975 89.4155 11.208 89.5312 11.1132L90.4731 10.1135C90.1626 9.89247 90.1942 10.0503 89.7943 10.003C89.8126 9.83506 89.8638 9.67239 89.9451 9.52431C90.0264 9.37623 90.136 9.24564 90.2679 9.14003C89.9311 9.71884 90.631 9.59781 90.9572 9.59781C90.8572 9.53467 90.852 9.38207 90.7678 9.30314C91.7149 9.38207 90.4152 8.64014 91.4729 8.41388L91.5413 8.59805C91.7833 8.30865 91.9096 7.90874 92.2674 7.72457C92.6463 7.97188 92.0622 8.10869 92.2674 8.40336C92.6989 8.06659 92.6989 7.11945 93.3461 7.17207C93.2198 7.40886 92.9462 7.60355 92.8199 7.83507C93.0003 7.87981 93.1884 7.88366 93.3705 7.84633C93.5526 7.80901 93.7241 7.73145 93.8723 7.61934H93.8354C94.1248 7.49831 94.43 7.39308 94.7352 7.29836H94.4564C94.4564 6.01446 95.5087 6.39331 95.956 5.28305C95.535 6.33543 96.0297 5.70401 96.2191 6.14601C96.4874 6.14601 96.8663 6.0776 96.8505 6.24598C96.9347 5.9671 97.1241 5.93552 97.3293 5.87764C97.4591 5.85133 97.5781 5.7874 97.6717 5.69382C97.7653 5.60024 97.8292 5.48116 97.8555 5.35145C97.9555 5.47774 98.2765 5.14624 98.3817 5.53562C98.8185 5.16203 98.1344 5.36198 98.0818 5.16729C98.3397 4.73582 98.8711 4.6411 99.4288 4.4885C99.7152 4.42186 99.9926 4.32117 100.255 4.18858C100.549 4.06208 100.802 3.85621 100.986 3.59398C101.855 2.88362 101.828 2.32586 102.67 1.66812C103.075 1.75758 102.623 2.29956 102.623 2.29956C103.134 2.29459 103.626 2.10808 104.012 1.77337C103.965 1.93123 104.107 2.00489 104.312 2.11013C104.691 1.93649 104.38 1.48922 104.975 1.52079C104.956 1.76933 104.895 2.01294 104.796 2.24168C105.201 1.94175 105.564 1.51027 105.996 1.1893C106.206 1.39977 105.838 1.67865 105.727 1.90492C105.975 1.75232 106.301 1.56815 106.569 1.37873C106.838 1.1893 107.064 0.999867 107.095 0.768344L106.696 0.720989C106.89 0.647322 106.906 1.04197 106.78 1.15773C106.737 1.22704 106.677 1.28334 106.604 1.32044C106.532 1.35753 106.451 1.37399 106.37 1.36801C106.289 1.36203 106.211 1.33384 106.145 1.28653C106.079 1.23922 106.027 1.17463 105.996 1.09985L106.306 0.884106C105.675 0.152702 104.97 1.51553 104.275 1.71022L104.338 0.989343L103.812 1.75758C103.602 1.65235 103.365 1.34715 103.675 1.13142C103.054 1.01039 103.317 1.50501 102.754 1.33136C102.686 1.29979 102.697 1.26296 102.754 1.22087L102.354 1.61025C102.397 1.44187 102.097 1.22087 102.428 1.17351C101.418 1.21035 101.239 2.22589 100.718 1.93122L100.771 1.86282C99.6762 2.59949 100.855 2.35744 100.244 3.26249C99.8709 2.98887 99.5025 2.73629 99.1342 2.47846L99.2342 2.96781C99.1079 3.01517 98.8605 3.10989 98.8184 2.9152C98.5238 3.44139 98.9869 3.06253 98.8711 3.47296C98.1029 3.38877 97.4135 4.48851 96.9136 3.88339C96.8873 4.3096 97.5924 3.84129 97.1136 4.40958C96.8242 4.09386 96.6664 4.22015 96.4927 4.40958C96.3191 4.59901 96.1507 4.89893 95.8034 4.89367C95.7402 4.43062 96.3296 4.33065 95.635 4.31487C95.7034 5.11994 94.5826 4.78843 94.2196 5.17255C94.3616 5.41986 94.1617 5.61456 93.8512 5.81977L93.3251 6.15126C93.1464 6.27646 92.9822 6.42119 92.8357 6.58274C92.7673 6.38805 91.3729 7.22995 90.6099 7.51409L90.5731 7.42464C90.6156 7.55323 90.6177 7.69174 90.5791 7.82156C90.5406 7.95138 90.4632 8.06627 90.3573 8.15079C90.1626 8.38231 89.8943 8.59804 89.7049 8.82957C89.6137 8.72116 89.5603 8.58604 89.5527 8.4446C89.5451 8.30316 89.5838 8.16309 89.6628 8.04555L89.2313 8.39284C89.2318 8.52148 89.2055 8.64882 89.1538 8.76664C89.1022 8.88446 89.0264 8.99014 88.9314 9.07688L88.7735 8.65067C88.2157 9.14002 87.9211 9.95561 87.0266 10.3503C87.2528 10.6923 88.3105 10.7186 87.7475 11.5763C87.5791 11.4342 87.3107 11.1711 87.4422 10.9343C87.4001 11.0133 87.337 11.2711 87.1476 11.3132L87.2055 10.787C86.7792 10.9501 87.237 11.1711 86.9582 11.3658C86.7635 11.129 86.6267 11.3658 86.5004 11.1501C86.5477 11.0659 86.8056 11.0501 86.8266 10.8659C86.5226 11.0886 86.1505 11.1984 85.7742 11.1764C85.8187 11.2015 85.857 11.2361 85.8866 11.2777C85.9161 11.3193 85.9361 11.367 85.9452 11.4172C85.9542 11.4675 85.9521 11.5191 85.9389 11.5684C85.9258 11.6177 85.9018 11.6635 85.8689 11.7026C85.3427 12.2288 85.4322 11.5921 85.0007 11.7552C85.0007 12.0341 84.5114 12.1814 84.8218 12.5287C84.6587 12.6708 84.4851 12.5287 84.3378 12.5287C84.2062 12.9444 83.1064 13.8073 83.7589 13.8652L83.8484 13.8231C83.8484 13.8231 83.8483 13.8547 83.8168 13.881C83.5053 14.4441 83.0518 14.9158 82.5013 15.2491C81.9671 15.5927 81.4941 16.023 81.1017 16.5225L80.9911 16.4172C80.6175 17.0697 79.9388 17.6696 79.8388 18.2799C79.6967 18.4431 79.3126 18.4746 79.2179 18.2799C78.9337 18.8061 79.0232 18.9429 78.297 19.3797C78.4654 18.7746 77.9866 19.3797 78.5286 18.8167C77.9498 19.2744 77.6499 19.2376 77.4762 20.1006C77.3552 19.6428 76.7237 20.1847 76.6027 20.5373L77.1289 20.3268C76.9296 20.6278 76.6966 20.9049 76.4344 21.1529L76.1502 20.6688C74.7137 21.4371 75.2714 23.4261 73.756 23.6734C73.8034 24.1996 74.4506 23.184 74.5769 23.7313C74.1033 24.2311 73.072 24.3364 72.9405 24.51C72.1354 25.0836 73.0141 25.6677 72.2617 26.3307C72.4879 26.3307 72.9562 26.5464 72.6721 27.241C72.2196 27.7671 71.546 27.4567 71.6776 27.02C71.7618 26.8779 71.8565 26.8463 71.9039 26.8884C71.9775 26.6727 72.0828 26.3885 71.7618 26.4885L71.8617 26.6727C71.5092 26.8305 70.9673 27.6093 70.8515 27.2515C70.6936 27.7777 70.9725 27.6093 71.2724 27.3567C70.541 27.9145 70.4568 28.467 69.7833 29.0984C69.9517 29.0405 70.2095 29.0563 70.1254 29.1721C69.1835 30.135 70.0832 29.8614 69.6465 30.6454C69.1203 30.9032 69.1887 30.1192 68.873 30.9874C68.3995 31.3347 68.3942 30.8085 68.3942 30.5402C68.2258 31.4242 67.3418 31.6767 67.0103 32.0451L67.1208 31.5925C67.059 31.8185 66.9555 32.0308 66.8156 32.2187H67.2628C67.0682 32.3976 66.9524 32.5765 66.8209 32.4871C66.884 32.8449 67.4523 32.666 67.447 33.2869C67.105 33.4658 67.0524 34.2603 66.5736 34.0867C67.2997 33.2869 66.0894 33.913 66.5156 33.1132C66.4505 33.3199 66.3261 33.5029 66.1579 33.6394C66.0895 33.6394 66.0895 33.55 66.1053 33.4763C65.1686 34.0972 66.3157 34.1761 65.7316 35.0549C65.5632 34.7918 65.1528 34.9812 65.1108 35.1601C65.3423 34.797 65.637 35.2338 65.5843 35.6863C65.0581 36.1441 65.3318 36.3967 65.1213 36.6861L65.4212 36.3967C65.5896 36.6598 65.3791 36.9229 65.2002 37.3754C64.9949 37.2964 65.3002 36.9334 65.1318 37.0281C65.2686 37.7279 64.0794 37.77 63.9794 38.5803C63.6427 38.775 63.5111 38.3383 63.248 38.5277C63.1375 39.4275 62.4535 39.1013 62.2746 40.0063C62.7218 39.9748 62.664 39.8958 62.685 40.6114C62.8324 40.1484 63.006 39.7011 63.1743 39.2433V40.2957C63.3953 39.9327 63.4322 39.3959 63.6164 39.2065C63.6585 39.7327 63.6164 39.6538 63.9794 39.6327C63.1901 39.8537 63.669 40.7956 63.0113 41.2113L62.2114 40.7325C61.3538 41.4323 61.7168 42.5426 60.9065 43.616L61.2485 43.316C61.4906 43.6475 60.9118 44.0685 60.8486 44.5158C60.5908 44.3369 60.3645 44.5158 60.1067 44.6C60.3224 44.6894 59.6278 45.4576 60.1435 45.8523L59.5174 46.2048C58.8964 47.1099 59.7804 47.694 59.249 48.5779C59.0701 48.1517 58.6702 48.4885 58.7491 47.7624C58.5913 48.0676 58.4176 48.3307 58.6123 48.4254C58.3545 48.5359 58.6123 49.4777 58.2124 49.6514C58.2808 49.8408 58.5649 50.0092 58.386 50.3565C58.3593 50.3563 58.3329 50.3506 58.3084 50.3397C58.284 50.3288 58.262 50.3131 58.2439 50.2933C58.386 50.3565 58.1966 50.93 58.6491 50.7564C57.9809 51.0458 57.7335 51.7509 57.5073 52.4402C57.281 53.1295 57.06 53.7978 56.5233 54.1029C56.3865 54.8554 56.1918 55.7499 55.9971 56.4077C55.9182 56.3393 55.8498 56.3603 55.9182 56.2498C55.3447 57.0654 56.6075 57.0654 56.0076 57.9968C55.3762 58.3914 55.8919 57.3758 55.6183 57.6547C54.5659 57.5232 55.4078 58.9439 54.6396 59.5017C54.6396 59.4385 54.6396 59.3754 54.6396 59.3122C54.166 59.7805 54.729 60.7435 54.4659 61.6117C54.4442 61.5959 54.4193 61.5849 54.393 61.5795C54.3667 61.574 54.3395 61.5743 54.3133 61.5801C54.6711 62.2852 54.6974 63.4744 54.7132 64.3479C54.3554 64.0269 54.5606 63.9269 54.1292 64.0374C54.1292 64.4321 54.7974 64.0374 54.7974 64.7951C54.5396 65.0161 54.2712 65.5528 53.8555 65.5844C53.8591 65.3361 53.8785 65.0883 53.9134 64.8425C53.282 65.1582 53.8345 65.8107 53.7082 66.1895L53.4662 66.1159C53.4662 67.2735 54.0555 67.3208 53.9924 68.5363L54.1818 68.4153C54.7974 69.0836 53.8397 68.9678 54.2975 69.6308L53.6767 69.836C53.7556 70.057 53.8976 70.4411 54.0555 70.8884C54.2291 71.3003 54.3784 71.7219 54.5027 72.1513C54.2354 71.9005 54.0192 71.6003 53.8661 71.2673C53.6819 70.92 53.5714 70.5464 53.4293 70.257C53.4244 70.5743 53.449 70.8914 53.503 71.2041C53.536 71.4917 53.6638 71.7601 53.8661 71.9671C53.7924 71.7934 53.6187 71.583 53.6977 71.3988C54.2493 71.9391 54.5747 72.669 54.608 73.4404C54.0029 73.4404 53.9555 74.014 54.0818 74.6822C54.2081 75.3505 54.2923 76.1082 53.8923 76.5292C54.0607 76.8911 54.2048 77.2637 54.3239 77.6447C54.4308 78.0324 54.5151 78.4259 54.5764 78.8233C54.6448 79.2285 54.6922 79.6495 54.7869 80.0809C54.8911 80.5593 55.0555 81.0226 55.2762 81.4596C55.5499 80.9334 55.6183 81.0702 55.7183 81.2649C55.8183 81.4596 55.9814 81.7332 56.376 81.4438C56.6549 81.8174 56.7496 81.97 56.7233 82.0436C56.8486 82.5961 57.0752 83.1206 57.3915 83.5906C57.5494 84.08 56.8232 83.4065 56.7233 83.5906C57.1968 84.0695 57.281 84.2168 57.281 84.3746C57.281 84.5325 57.2179 84.6746 57.5862 85.0271C57.5862 84.6272 58.2334 84.8535 58.9122 85.1902C58.6178 84.9475 58.3465 84.678 58.1019 84.3852C58.6668 84.4331 59.1989 84.6704 59.612 85.0587C59.8183 85.2555 60.0776 85.3878 60.3581 85.4392C60.6385 85.4906 60.9279 85.459 61.1906 85.3481C61.017 85.4586 60.8276 85.5481 60.6329 85.648C61.3311 85.5998 62.0233 85.4871 62.7008 85.3113C63.0415 85.2383 63.3627 85.0936 63.643 84.8867C63.9234 84.6798 64.1565 84.4156 64.3267 84.1115C64.5004 84.1589 64.8003 84.3115 64.4951 84.522C64.6108 84.4799 64.7319 84.4325 64.8477 84.3799L65.1739 84.1694C65.3896 84.0221 65.6001 83.859 65.8053 83.6906C66.19 83.3256 66.5421 82.9277 66.8577 82.5014C67.3023 81.7385 67.8186 81.0197 68.3994 80.3546L68.5415 80.5914C68.6468 80.2441 68.4205 79.8599 68.8256 79.5758C68.9045 79.6389 68.9783 79.8021 69.0624 79.66C69.0125 79.1924 69.0888 78.72 69.2834 78.2919L69.4045 78.7392C69.6059 78.387 69.7296 77.9959 69.7675 77.5921C69.8088 77.2405 69.7892 76.8846 69.7096 76.5397C69.6097 75.882 69.3466 75.2926 69.2992 74.6033C69.9885 74.6349 70.2148 73.2457 70.1938 72.5354H70.2937C70.2561 72.046 70.1444 71.5652 69.9622 71.1094C69.8094 70.6876 69.6081 70.285 69.3623 69.9097C69.1362 69.5406 68.8829 69.1889 68.6047 68.8573C68.3521 68.4995 68.0364 68.1733 67.7364 67.8049C67.7342 67.408 67.6252 67.0191 67.4207 66.6789C67.1893 66.2431 66.9085 65.8352 66.584 65.4634C66.2578 65.053 65.8684 64.6741 65.5317 64.2847C65.1949 63.8953 64.8214 63.527 64.5214 63.1797C64.6582 63.4481 64.1478 63.5744 63.8584 63.4428C63.6164 63.064 62.664 63.185 63.0744 62.6904L63.1901 62.7851C63.2043 62.6247 63.1752 62.4634 63.1057 62.3181C63.0363 62.1728 62.9292 62.0488 62.7955 61.959C62.5271 61.7485 62.1799 61.5854 61.901 61.4012L61.3748 62.0747C60.9328 61.1381 59.8646 60.7066 58.8964 60.4383C57.9282 60.1699 57.039 59.9805 56.7917 59.3175C56.3391 59.3754 55.8708 59.2228 55.4288 59.3175L55.5867 58.8965C54.6751 58.4597 53.7059 58.155 52.7084 57.9915L53.0557 57.7547C52.3191 57.5337 51.7981 58.7545 51.1246 58.6229L51.0772 57.9284C49.7986 57.6389 48.6252 56.7497 47.2203 57.1022C47.2624 57.0128 47.3361 56.8286 47.5518 56.8444C46.9467 56.7076 45.2786 55.9236 45.3365 56.876C45.4259 56.2866 44.0053 56.5918 43.2633 56.7339L43.4475 56.3182C42.7634 56.776 42.7266 56.9128 41.8689 56.9444C41.6795 56.8602 41.7479 56.5708 41.9899 56.7181C41.3743 56.4024 41.4269 57.0601 40.6692 56.7181L41.0007 56.4813C40.3377 56.355 40.3693 56.5129 39.9483 56.7865C39.5063 56.9075 38.696 56.5024 38.6381 56.1025C38.5518 56.2574 38.4145 56.3777 38.2495 56.443C38.0845 56.5082 37.9021 56.5143 37.7331 56.4603C37.6962 56.3077 37.8488 56.2287 37.9278 56.1919C36.8333 55.7762 36.2071 56.5182 35.4757 56.0183C35.4797 55.9672 35.4718 55.916 35.4526 55.8685C35.4334 55.821 35.4035 55.7786 35.3652 55.7447C35.8862 55.7745 36.4038 55.8485 36.9123 55.9657C36.9543 55.5658 36.2334 55.4395 36.8649 54.9133C36.5597 55.0343 36.1387 55.2343 35.7125 55.3711C35.332 55.5386 34.9076 55.5792 34.5023 55.4868C34.4659 55.4429 34.4374 55.3931 34.4181 55.3395L34.497 55.2974C34.3474 55.252 34.1863 55.2632 34.0445 55.329C33.8598 55.2487 33.6651 55.1939 33.4657 55.1659C33.4025 54.8291 32.6396 54.9185 32.2765 54.887C32.2765 55.329 31.8135 55.2395 32.2344 55.6236C32.1818 55.5921 32.3081 55.5658 32.5501 55.571C32.6044 55.5675 32.6577 55.5551 32.7079 55.5342L32.6764 55.571L33.5814 55.6079C33.2762 55.8131 32.971 55.9814 32.5869 55.7026C32.3817 55.9709 32.1607 56.2603 32.0607 56.3919C31.6029 55.7499 30.6611 55.3763 30.5453 54.987C29.4245 55.1711 27.9144 55.0764 27.2198 55.9025C26.9041 56.0078 26.862 55.6605 26.7462 55.5289C26.9251 55.4447 27.1409 55.4605 27.2409 55.3448C26.6095 55.5447 25.3781 55.4079 25.2308 56.0025C24.4415 55.7552 25.6728 55.4763 24.5836 55.5763L24.7309 55.3921C23.6786 54.9554 22.7788 55.3185 21.9 55.7131C21.0213 56.1077 20.1162 56.434 18.8955 55.9236C19.0638 55.9815 19.1481 56.0078 19.1849 56.1025C17.8072 56.0094 16.4234 56.114 15.0754 56.4129C14.397 56.5428 13.7119 56.6342 13.0232 56.6865C12.3401 56.7593 11.6506 56.7451 10.9711 56.6444C10.1923 56.5866 10.166 56.9654 9.75557 57.3127L9.51878 56.8654L8.82947 57.5442C8.30328 57.8389 7.77709 57.6337 7.2509 57.4811C6.95865 57.3598 6.63867 57.3211 6.32593 57.3694C6.01319 57.4176 5.71973 57.5509 5.47765 57.7547L5.7197 58.0336C5.19351 58.0757 4.18321 58.5598 4.18847 58.1651C4.15164 58.2335 4.09377 58.5282 3.86751 58.4019L3.66755 58.1388C3.28869 58.3546 2.90983 58.5913 2.5415 58.8281C1.55752 58.8808 2.46784 57.8284 1.06817 58.1178C0.573553 58.3335 -0.215732 59.1702 0.0157919 59.2912C0.226268 59.2491 0.578832 59.2912 0.65776 59.549L0.226281 59.7911C0.320995 60.5225 0.163138 61.3328 1.41021 61.5643L2.08371 60.9382L2.41522 61.2223L1.76801 61.4012C2.21527 61.638 2.38363 61.296 2.59937 61.0329C2.64331 61.1096 2.70313 61.176 2.77482 61.2277C2.84651 61.2795 2.92843 61.3153 3.01508 61.3328L3.62545 60.4646C3.7833 60.7277 3.40445 61.096 3.95695 61.1434C4.24635 60.7487 3.46759 60.5856 4.02009 60.2541C4.47261 60.5014 4.42002 60.7803 4.79887 60.4172C4.89885 60.5909 4.83042 60.7277 4.67783 60.8434C5.01985 60.5435 5.6934 60.533 5.81968 60.1068C6.28799 60.4277 7.12988 59.7332 7.21933 60.4278C7.45819 60.09 7.79129 59.8301 8.177 59.6806C7.65081 60.6172 9.54508 59.4859 9.51351 60.4014C9.88185 59.5595 11.2342 59.8069 12.0445 59.2649C12.0077 59.328 11.9288 59.4596 11.8446 59.4332C12.1959 59.4594 12.538 59.558 12.8495 59.7227C12.8495 59.0965 13.581 58.8702 13.9546 58.444C14.6334 58.9702 13.6704 59.207 13.9546 59.7542C13.8599 59.2596 14.9438 59.1386 14.6912 58.7492C15.2174 59.0597 15.1122 58.8807 15.4016 59.3648C15.4016 58.5861 15.8173 59.1859 16.154 58.6703C16.8644 58.9913 16.3961 59.3754 17.1065 59.0807C17.4853 59.2754 16.8539 59.6016 16.8539 59.6016ZM35.8861 58.3019C35.676 58.2598 35.4633 58.2316 35.2495 58.2178C35.2074 58.0652 35.281 57.9073 35.4284 57.9336C35.3389 58.0231 35.6809 58.1388 35.8861 58.3019ZM32.95 54.9817C33.1973 54.9396 33.271 55.0343 33.2973 55.1238C33.1816 55.1238 33.05 55.1238 32.8711 55.1238C32.8625 55.1424 32.8519 55.16 32.8395 55.1764C32.8646 55.1055 32.9021 55.0396 32.95 54.9817Z" fill="#D020C9"/>
<path id="Vector_26" d="M32.4817 55.534C32.4485 55.537 32.415 55.537 32.3817 55.534C32.4222 55.5767 32.4682 55.6139 32.5185 55.6445L32.608 55.5129L32.4817 55.534Z" fill="#D020C9"/>
<path id="Vector_27" d="M83.7274 13.8389H83.6958C83.7251 13.8311 83.756 13.8311 83.7853 13.8389C83.7853 13.8389 83.7485 13.8389 83.7274 13.8389Z" fill="#D020C9"/>
<path id="Vector_28" d="M55.613 63.1533L55.6445 63.0481L55.4972 63.1007L55.613 63.1533Z" fill="#D020C9"/>
<path id="Vector_29" d="M90.9678 9.58716C91.0171 9.60483 91.071 9.60483 91.1203 9.58716C91.1203 9.58716 91.0414 9.58716 90.9678 9.58716Z" fill="#D020C9"/>
<path id="Vector_30" d="M93.8881 7.62438C94.0564 7.57703 94.2143 7.51915 94.4143 7.47705C94.2331 7.50273 94.0562 7.55227 93.8881 7.62438Z" fill="#D020C9"/>
<path id="Vector_31" d="M96.277 6.35631C96.2685 6.28929 96.2508 6.22378 96.2244 6.16162L96.277 6.35631Z" fill="#D020C9"/>
<path id="Vector_32" d="M67.7102 38.0857C67.6925 38.1168 67.6801 38.1505 67.6733 38.1857C67.6155 38.4382 67.6733 38.2804 67.7102 38.0857Z" fill="#D020C9"/>
<path id="Vector_33" d="M74.1296 26.8357C74.1182 26.9892 74.0899 27.1409 74.0454 27.2882C74.2138 27.1251 74.3296 26.9936 74.1296 26.8357Z" fill="#D020C9"/>
<path id="Vector_34" d="M73.6824 27.7722C73.8585 27.6606 73.9877 27.4884 74.0454 27.2881C73.8858 27.4166 73.761 27.583 73.6824 27.7722Z" fill="#D020C9"/>
<path id="Vector_35" d="M106.901 1.71527H107.032C107.028 1.69091 107.028 1.66596 107.032 1.6416L106.901 1.71527Z" fill="#D020C9"/>
<path id="Vector_36" d="M107.022 1.62584L107.148 1.53638C107.085 1.55742 107.027 1.57322 107.022 1.62584Z" fill="#D020C9"/>
<path id="Vector_37" d="M107.406 1.35229L107.148 1.53646C107.248 1.51015 107.374 1.4891 107.406 1.35229Z" fill="#D020C9"/>
<path id="Vector_38" d="M103.496 2.70459V2.86772C103.513 2.81456 103.513 2.75775 103.496 2.70459Z" fill="#D020C9"/>
<path id="Vector_39" d="M102.528 3.18338C102.775 3.11498 103.249 3.23601 103.533 2.99922V2.86768C103.454 3.15182 102.644 2.8361 102.528 3.18338Z" fill="#D020C9"/>
<path id="Vector_40" d="M97.5293 3.41491L98.4185 3.08341C98.1923 3.00974 97.8924 2.90977 98.2554 2.66772C96.9663 2.7677 98.6501 2.88872 97.5293 3.41491Z" fill="#D020C9"/>
<path id="Vector_41" d="M94.8721 4.64626C95.2667 4.31476 94.7406 4.44104 94.7143 4.34106C94.5196 4.64625 94.4722 4.71992 94.8721 4.64626Z" fill="#D020C9"/>
<path id="Vector_42" d="M78.9126 18.3062L78.6443 18.001C78.4496 18.3325 78.7758 18.1062 78.9126 18.3062Z" fill="#D020C9"/>
<path id="Vector_43" d="M77.9235 22.6788L78.3497 22.5525L78.176 22.179L77.9235 22.6788Z" fill="#D020C9"/>
<path id="Vector_44" d="M74.177 22.6945L74.2401 22.5261C74.1401 22.7261 74.0401 22.9208 73.9507 23.126C74.0454 22.9786 74.1191 22.8366 74.177 22.6945Z" fill="#D020C9"/>
<path id="Vector_45" d="M56.3286 53.1558L56.8548 53.2137C56.8495 52.94 56.3497 52.6875 56.3286 53.1558Z" fill="#D020C9"/>
<path id="Vector_46" d="M53.6556 68.3784C53.5864 68.4248 53.5273 68.4847 53.4817 68.5544C53.4361 68.6241 53.405 68.7023 53.3903 68.7843C53.3755 68.8663 53.3775 68.9504 53.3959 69.0317C53.4144 69.1129 53.449 69.1896 53.4977 69.2572C53.5398 68.9046 53.7292 68.5573 53.6556 68.3784Z" fill="#D020C9"/>
<path id="Vector_47" d="M60.8749 61.117L61.2432 61.1275L60.6328 60.9539L60.8749 61.117Z" fill="#D020C9"/>
</g>
<defs>
<clipPath id="clip0_69_447">
<rect width="110" height="85.6058" fill="white"/>
</clipPath>
</defs>
</svg>
