<svg width="44" height="46" viewBox="0 0 44 46" fill="none" xmlns="http://www.w3.org/2000/svg">
<g id="Group 10">
<path id="Vector" d="M34.4187 27.3838V27.4258C33.752 29.2895 32.6805 30.9823 31.2813 32.3824C29.8821 33.7825 28.19 34.8551 26.3266 35.523C23.992 36.3423 21.476 36.4985 19.058 35.974C18.5244 35.8577 17.9989 35.7071 17.4847 35.523C15.6165 34.8617 13.9196 33.7915 12.5178 32.3906C11.116 30.9897 10.0447 29.2935 9.38215 27.4258V27.3838H0V27.4572C0.891322 31.8178 3.06655 35.8121 6.24602 38.9266C6.95381 39.6126 7.70534 40.252 8.49585 40.8408C10.1514 42.0866 11.9731 43.0945 13.908 43.8353C15.0472 44.2714 16.2208 44.6117 17.4165 44.8527C23.2136 46.0349 29.2428 44.8665 34.1787 41.6045C39.1146 38.3424 42.553 33.2537 43.7379 27.4572V27.3838H34.4187Z" fill="#C900C1"/>
<path id="Vector_2" d="M9.34544 18.568C10.0012 16.713 11.0607 15.0268 12.4473 13.631C13.834 12.2352 15.5134 11.1648 17.364 10.497V27.5044H21.6067H26.3686V1.1463H26.3214C22.1639 0.300986 17.8518 0.65381 13.887 2.16371C11.0292 3.2588 8.428 4.93164 6.24602 7.07766C5.43701 7.86677 4.69011 8.71713 4.01194 9.62117C2.02904 12.2581 0.658516 15.3037 0 18.5366V18.6152H9.3297L9.34544 18.568Z" fill="#C900C1"/>
</g>
</svg>
